<svg xmlns="http://www.w3.org/2000/svg" xmlns:xlink="http://www.w3.org/1999/xlink" width="334.143" height="57.613" viewBox="0 0 334.143 57.613"><defs><filter id="a" x="0" y="0" width="87.759" height="57.613" filterUnits="userSpaceOnUse"><feOffset dy="3" input="SourceAlpha"/><feGaussianBlur stdDeviation="3" result="b"/><feFlood flood-opacity="0.161"/><feComposite operator="in" in2="b"/><feComposite in="SourceGraphic"/></filter><filter id="c" x="74.029" y="3.259" width="44.207" height="50.809" filterUnits="userSpaceOnUse"><feOffset dy="3" input="SourceAlpha"/><feGaussianBlur stdDeviation="3" result="d"/><feFlood flood-opacity="0.161"/><feComposite operator="in" in2="d"/><feComposite in="SourceGraphic"/></filter><filter id="e" x="104.709" y="3.274" width="55.727" height="50.815" filterUnits="userSpaceOnUse"><feOffset dy="3" input="SourceAlpha"/><feGaussianBlur stdDeviation="3" result="f"/><feFlood flood-opacity="0.161"/><feComposite operator="in" in2="f"/><feComposite in="SourceGraphic"/></filter><filter id="g" x="148.746" y="3.296" width="45.917" height="50.801" filterUnits="userSpaceOnUse"><feOffset dy="3" input="SourceAlpha"/><feGaussianBlur stdDeviation="3" result="h"/><feFlood flood-opacity="0.161"/><feComposite operator="in" in2="h"/><feComposite in="SourceGraphic"/></filter><filter id="i" x="181.129" y="3.311" width="47.853" height="50.811" filterUnits="userSpaceOnUse"><feOffset dy="3" input="SourceAlpha"/><feGaussianBlur stdDeviation="3" result="j"/><feFlood flood-opacity="0.161"/><feComposite operator="in" in2="j"/><feComposite in="SourceGraphic"/></filter><filter id="k" x="214.412" y="3.327" width="44.207" height="50.81" filterUnits="userSpaceOnUse"><feOffset dy="3" input="SourceAlpha"/><feGaussianBlur stdDeviation="3" result="l"/><feFlood flood-opacity="0.161"/><feComposite operator="in" in2="l"/><feComposite in="SourceGraphic"/></filter><filter id="m" x="243.251" y="2.766" width="50.384" height="51.988" filterUnits="userSpaceOnUse"><feOffset dy="3" input="SourceAlpha"/><feGaussianBlur stdDeviation="3" result="n"/><feFlood flood-opacity="0.161"/><feComposite operator="in" in2="n"/><feComposite in="SourceGraphic"/></filter><filter id="o" x="279.722" y="2.784" width="54.421" height="51.989" filterUnits="userSpaceOnUse"><feOffset dy="3" input="SourceAlpha"/><feGaussianBlur stdDeviation="3" result="p"/><feFlood flood-opacity="0.161"/><feComposite operator="in" in2="p"/><feComposite in="SourceGraphic"/></filter></defs><g transform="translate(-316.467 -432.316)"><g transform="matrix(1, 0, 0, 1, 316.47, 432.32)" filter="url(#a)"><path d="M325.642,458.7a19.234,19.234,0,0,0,19.234,19.234H395.4V438.316H325.642Zm39.3-16.971h25.425v7.834h-16.35V454.5h14.136v6.715H374.012v5.474h17.128v7.834h-26.2Zm-35.035,0h31.361v7.98H350.1v24.816h-9.075V449.7H329.9Z" transform="translate(-316.64 -432.32)" fill="#fff"/></g><g transform="matrix(1, 0, 0, 1, 316.47, 432.32)" filter="url(#c)"><path d="M631.863,470.891,646,470.9l0-6.715-14.136-.007,0-4.939,16.35.008,0-7.834L622.8,451.4l-.016,32.8,26.2.013,0-7.834-17.129-.008Z" transform="translate(-539.75 -442.14)" fill="#fff"/></g><g transform="matrix(1, 0, 0, 1, 316.47, 432.32)" filter="url(#e)"><path d="M764.864,466.016h-.1l-9.458-14.554-9.367,0-.016,32.8,9.075,0,.007-13.065c-.024-1.119-.169-3.382-.459-6.813l.17-.049,3.33,5.719,6.127,9.37h1.289l6.038-9.364c.56-.852,1.68-2.773,3.336-5.716l.146.049-.393,6.812-.006,13.065,9.05,0,.016-32.8-9.367,0Z" transform="translate(-632.22 -442.18)" fill="#fff"/></g><g transform="matrix(1, 0, 0, 1, 316.47, 432.32)" filter="url(#g)"><path d="M950.6,463.528a11.061,11.061,0,0,0-3.67-8.737c-2.457-2.166-6.13-3.238-10.972-3.241l-13.26-.006-.016,32.8,9.075,0,0-8.808,5.377,0C945.827,475.544,950.6,471.241,950.6,463.528ZM931.767,468.6l0-9.27,3.942,0c2.311,0,3.892.416,4.719,1.243a4.36,4.36,0,0,1,1.239,3.236c0,3.188-1.876,4.792-5.623,4.79Z" transform="translate(-764.94 -442.25)" fill="#fff"/></g><g transform="matrix(1, 0, 0, 1, 316.47, 432.32)" filter="url(#i)"><path d="M1075.443,471.958c3.285-1.774,4.942-4.815,4.944-9.121a10.316,10.316,0,0,0-3.475-8.176c-2.335-2.02-5.814-3.044-10.436-3.047l-13.8-.006-.016,32.8,9.075,0,.005-10.705,4.429,0,6.272,10.708,10.072,0-7.074-12.314Zm-9.462-4.749-4.233,0,0-8.053,4.476,0c3.48,0,5.231,1.341,5.229,3.993C1071.456,465.995,1069.849,467.21,1065.981,467.209Z" transform="translate(-862.53 -442.3)" fill="#fff"/></g><g transform="matrix(1, 0, 0, 1, 316.47, 432.32)" filter="url(#k)"><path d="M1195.34,471.164l14.136.007,0-6.715-14.136-.007,0-4.939,16.35.008,0-7.834-25.425-.013-.016,32.8,26.2.013,0-7.834-17.128-.008Z" transform="translate(-962.85 -442.34)" fill="#fff"/></g><g transform="matrix(1, 0, 0, 1, 316.47, 432.32)" filter="url(#m)"><path d="M1334.4,464.827l-14.549-.007,0,6.472,5.5,0v2.336a6.171,6.171,0,0,1-2.483,1.385,11.294,11.294,0,0,1-3.8.606,7.219,7.219,0,0,1-5.5-2.363,8.954,8.954,0,0,1-2.235-6.4,8.964,8.964,0,0,1,9.688-9.46,18.4,18.4,0,0,1,10.095,2.973l2.243-7.371c-3.236-2.386-7.614-3.58-13.088-3.583q-8.176,0-13.214,4.957a16.8,16.8,0,0,0-5.042,12.479,16.622,16.622,0,0,0,4.374,11.851q4.341,4.71,11.676,4.7c3.869,0,6.764-1.237,8.663-3.742h.243l1.458,3.139,5.961,0Z" transform="translate(-1049.76 -440.65)" fill="#fff"/></g><g transform="matrix(1, 0, 0, 1, 316.47, 432.32)" filter="url(#o)"><path d="M1479.67,454.289a20.138,20.138,0,0,0-26.082-.013,15.694,15.694,0,0,0-5.188,11.992,16.216,16.216,0,0,0,5.1,12.459q5.108,4.747,13.137,4.751,8.173,0,13.188-4.86a16.441,16.441,0,0,0,4.994-12.333A15.757,15.757,0,0,0,1479.67,454.289Zm-19.135,20.66h-3.887v-11.66h3.887Zm17.489-10.605v1.86a1.953,1.953,0,0,1-.141.71l-2.93,6.85a1.935,1.935,0,0,1-1.787,1.185h-8.745a1.942,1.942,0,0,1-1.943-1.943v-9.716a1.953,1.953,0,0,1,.569-1.375l6.4-6.4,1.034,1.025a1.453,1.453,0,0,1,.428,1.03,1.558,1.558,0,0,1-.034.306l-.929,4.44h6.136a1.943,1.943,0,0,1,1.944,1.943l-.01.073Z" transform="translate(-1159.68 -440.71)" fill="#fff"/></g></g></svg>