<svg width="329" height="52" viewBox="0 0 329 52" fill="none" xmlns="http://www.w3.org/2000/svg">
<g filter="url(#filter0_d)">
<path d="M6 23.384C6 28.4852 8.02644 33.3774 11.6335 36.9845C15.2406 40.5916 20.1328 42.618 25.234 42.618H75.758V3H6V23.384ZM45.3 6.41299H70.725V14.247H54.375V19.184H68.511V25.899H54.37V31.373H71.498V39.207H45.298L45.3 6.41299ZM10.265 6.41299H41.626V14.393H30.458V39.209H21.383V14.384H10.258L10.265 6.41299Z" fill="white"/>
</g>
<g filter="url(#filter1_d)">
<path d="M89.111 25.755L103.248 25.764V19.049L89.112 19.0421V14.1031L105.462 14.1111V6.27704L80.048 6.26404L80.032 39.0641L106.232 39.0771V31.243L89.103 31.235L89.111 25.755Z" fill="white"/>
</g>
<g filter="url(#filter2_d)">
<path d="M129.642 20.84H129.542L120.084 6.28601H110.717L110.701 39.086H119.776L119.783 26.021C119.759 24.902 119.614 22.639 119.324 19.208L119.494 19.159L122.824 24.878L128.951 34.248H130.24L136.278 24.884C136.838 24.032 137.958 22.111 139.614 19.168L139.76 19.217L139.367 26.029L139.361 39.094H148.411L148.427 6.29401H139.06L129.642 20.84Z" fill="white"/>
</g>
<g filter="url(#filter3_d)">
<path d="M182.658 18.282C182.732 16.6447 182.441 15.0115 181.806 13.5005C181.171 11.9895 180.209 10.6384 178.988 9.54495C176.531 7.37895 172.858 6.30696 168.016 6.30396L154.756 6.29797L154.74 39.098H163.815V30.29H169.192C177.885 30.298 182.658 25.995 182.658 18.282ZM163.825 23.354V14.084H167.767C170.078 14.084 171.659 14.5 172.486 15.327C172.903 15.753 173.228 16.26 173.441 16.8166C173.654 17.3732 173.751 17.9675 173.725 18.563C173.725 21.751 171.849 23.355 168.102 23.353L163.825 23.354Z" fill="white"/>
</g>
<g filter="url(#filter4_d)">
<path d="M209.901 26.662C213.186 24.888 214.843 21.847 214.845 17.541C214.911 16.0054 214.634 14.4744 214.033 13.0598C213.431 11.6452 212.522 10.3829 211.37 9.36502C209.035 7.34502 205.556 6.32102 200.934 6.31802L187.134 6.31201L187.118 39.112H196.193L196.198 28.407H200.627L206.899 39.115H216.971L209.897 26.801L209.901 26.662ZM200.439 21.913H196.206V13.86H200.682C204.162 13.86 205.913 15.201 205.911 17.853C205.914 20.699 204.307 21.914 200.439 21.913Z" fill="white"/>
</g>
<g filter="url(#filter5_d)">
<path d="M229.488 25.828L243.624 25.835V19.12L229.488 19.113V14.174L245.838 14.182V6.34796L220.413 6.33496L220.397 39.135L246.597 39.148V31.314L229.469 31.306L229.488 25.828Z" fill="white"/>
</g>
<g filter="url(#filter6_d)">
<path d="M281.638 21.181L267.089 21.174V27.646H272.589V29.982C271.88 30.6307 271.03 31.1049 270.106 31.367C268.883 31.7849 267.598 31.9899 266.306 31.973C265.274 31.9955 264.248 31.7961 263.3 31.3885C262.351 30.9808 261.5 30.3744 260.806 29.61C259.251 27.8521 258.448 25.5538 258.571 23.21C258.496 21.9284 258.696 20.6454 259.16 19.4481C259.623 18.2507 260.338 17.1669 261.257 16.27C262.176 15.373 263.276 14.6838 264.484 14.2491C265.692 13.8143 266.979 13.6441 268.259 13.75C271.842 13.7371 275.35 14.7703 278.354 16.723L280.597 9.35202C277.361 6.96602 272.983 5.77204 267.509 5.76904C262.058 5.76904 257.654 7.42138 254.295 10.726C252.64 12.3462 251.337 14.2911 250.47 16.4386C249.602 18.5861 249.188 20.8898 249.253 23.205C249.095 27.5771 250.666 31.8352 253.627 35.056C256.521 38.196 260.413 39.7627 265.303 39.756C269.172 39.756 272.067 38.519 273.966 36.014H274.209L275.667 39.153H281.628L281.638 21.181Z" fill="white"/>
</g>
<g filter="url(#filter7_d)">
<path d="M316.988 10.583C313.349 7.48709 308.727 5.78595 303.949 5.78357C299.171 5.78119 294.548 7.47772 290.906 10.57C289.231 12.0789 287.9 13.9311 287.005 16.0004C286.109 18.0698 285.671 20.3078 285.718 22.562C285.626 24.8828 286.034 27.1963 286.914 29.3458C287.794 31.4953 289.125 33.4307 290.818 35.021C294.223 38.1857 298.602 39.7693 303.955 39.772C309.404 39.772 313.8 38.152 317.143 34.912C318.789 33.3178 320.083 31.3972 320.943 29.2733C321.803 27.1494 322.21 24.8692 322.137 22.579C322.186 20.3277 321.751 18.092 320.863 16.0227C319.975 13.9534 318.654 12.0985 316.988 10.583ZM297.853 31.243H293.966V19.583H297.853V31.243ZM315.342 20.638V22.498C315.34 22.7414 315.292 22.9822 315.201 23.208L312.271 30.058C312.123 30.4097 311.875 30.7098 311.557 30.9207C311.239 31.1315 310.865 31.2437 310.484 31.243H301.739C301.484 31.2431 301.231 31.193 300.995 31.0954C300.759 30.9978 300.545 30.8546 300.365 30.6742C300.184 30.4937 300.041 30.2795 299.944 30.0437C299.846 29.8079 299.796 29.5552 299.796 29.3V19.584C299.797 19.0686 300.001 18.5743 300.365 18.209L306.765 11.809L307.799 12.834C307.935 12.969 308.042 13.1295 308.116 13.3063C308.189 13.4831 308.227 13.6726 308.227 13.864C308.226 13.9669 308.214 14.0694 308.193 14.17L307.264 18.61H313.4C313.655 18.6099 313.908 18.66 314.144 18.7576C314.38 18.8552 314.594 18.9983 314.774 19.1787C314.955 19.3592 315.098 19.5734 315.196 19.8092C315.294 20.045 315.344 20.2978 315.344 20.553L315.334 20.626L315.342 20.638Z" fill="white"/>
</g>
<defs>
<filter id="filter0_d" x="0" y="0" width="81.758" height="51.618" filterUnits="userSpaceOnUse" color-interpolation-filters="sRGB">
<feFlood flood-opacity="0" result="BackgroundImageFix"/>
<feColorMatrix in="SourceAlpha" type="matrix" values="0 0 0 0 0 0 0 0 0 0 0 0 0 0 0 0 0 0 127 0"/>
<feOffset dy="3"/>
<feGaussianBlur stdDeviation="3"/>
<feColorMatrix type="matrix" values="0 0 0 0 0 0 0 0 0 0 0 0 0 0 0 0 0 0 0.161 0"/>
<feBlend mode="normal" in2="BackgroundImageFix" result="effect1_dropShadow"/>
<feBlend mode="normal" in="SourceGraphic" in2="effect1_dropShadow" result="shape"/>
</filter>
<filter id="filter1_d" x="74.032" y="3.26404" width="38.2" height="44.813" filterUnits="userSpaceOnUse" color-interpolation-filters="sRGB">
<feFlood flood-opacity="0" result="BackgroundImageFix"/>
<feColorMatrix in="SourceAlpha" type="matrix" values="0 0 0 0 0 0 0 0 0 0 0 0 0 0 0 0 0 0 127 0"/>
<feOffset dy="3"/>
<feGaussianBlur stdDeviation="3"/>
<feColorMatrix type="matrix" values="0 0 0 0 0 0 0 0 0 0 0 0 0 0 0 0 0 0 0.161 0"/>
<feBlend mode="normal" in2="BackgroundImageFix" result="effect1_dropShadow"/>
<feBlend mode="normal" in="SourceGraphic" in2="effect1_dropShadow" result="shape"/>
</filter>
<filter id="filter2_d" x="104.701" y="3.28601" width="49.726" height="44.808" filterUnits="userSpaceOnUse" color-interpolation-filters="sRGB">
<feFlood flood-opacity="0" result="BackgroundImageFix"/>
<feColorMatrix in="SourceAlpha" type="matrix" values="0 0 0 0 0 0 0 0 0 0 0 0 0 0 0 0 0 0 127 0"/>
<feOffset dy="3"/>
<feGaussianBlur stdDeviation="3"/>
<feColorMatrix type="matrix" values="0 0 0 0 0 0 0 0 0 0 0 0 0 0 0 0 0 0 0.161 0"/>
<feBlend mode="normal" in2="BackgroundImageFix" result="effect1_dropShadow"/>
<feBlend mode="normal" in="SourceGraphic" in2="effect1_dropShadow" result="shape"/>
</filter>
<filter id="filter3_d" x="148.74" y="3.29797" width="39.9292" height="44.8" filterUnits="userSpaceOnUse" color-interpolation-filters="sRGB">
<feFlood flood-opacity="0" result="BackgroundImageFix"/>
<feColorMatrix in="SourceAlpha" type="matrix" values="0 0 0 0 0 0 0 0 0 0 0 0 0 0 0 0 0 0 127 0"/>
<feOffset dy="3"/>
<feGaussianBlur stdDeviation="3"/>
<feColorMatrix type="matrix" values="0 0 0 0 0 0 0 0 0 0 0 0 0 0 0 0 0 0 0.161 0"/>
<feBlend mode="normal" in2="BackgroundImageFix" result="effect1_dropShadow"/>
<feBlend mode="normal" in="SourceGraphic" in2="effect1_dropShadow" result="shape"/>
</filter>
<filter id="filter4_d" x="181.118" y="3.31201" width="41.8529" height="44.803" filterUnits="userSpaceOnUse" color-interpolation-filters="sRGB">
<feFlood flood-opacity="0" result="BackgroundImageFix"/>
<feColorMatrix in="SourceAlpha" type="matrix" values="0 0 0 0 0 0 0 0 0 0 0 0 0 0 0 0 0 0 127 0"/>
<feOffset dy="3"/>
<feGaussianBlur stdDeviation="3"/>
<feColorMatrix type="matrix" values="0 0 0 0 0 0 0 0 0 0 0 0 0 0 0 0 0 0 0.161 0"/>
<feBlend mode="normal" in2="BackgroundImageFix" result="effect1_dropShadow"/>
<feBlend mode="normal" in="SourceGraphic" in2="effect1_dropShadow" result="shape"/>
</filter>
<filter id="filter5_d" x="214.397" y="3.33496" width="38.2" height="44.813" filterUnits="userSpaceOnUse" color-interpolation-filters="sRGB">
<feFlood flood-opacity="0" result="BackgroundImageFix"/>
<feColorMatrix in="SourceAlpha" type="matrix" values="0 0 0 0 0 0 0 0 0 0 0 0 0 0 0 0 0 0 127 0"/>
<feOffset dy="3"/>
<feGaussianBlur stdDeviation="3"/>
<feColorMatrix type="matrix" values="0 0 0 0 0 0 0 0 0 0 0 0 0 0 0 0 0 0 0.161 0"/>
<feBlend mode="normal" in2="BackgroundImageFix" result="effect1_dropShadow"/>
<feBlend mode="normal" in="SourceGraphic" in2="effect1_dropShadow" result="shape"/>
</filter>
<filter id="filter6_d" x="243.242" y="2.76904" width="44.3959" height="45.987" filterUnits="userSpaceOnUse" color-interpolation-filters="sRGB">
<feFlood flood-opacity="0" result="BackgroundImageFix"/>
<feColorMatrix in="SourceAlpha" type="matrix" values="0 0 0 0 0 0 0 0 0 0 0 0 0 0 0 0 0 0 127 0"/>
<feOffset dy="3"/>
<feGaussianBlur stdDeviation="3"/>
<feColorMatrix type="matrix" values="0 0 0 0 0 0 0 0 0 0 0 0 0 0 0 0 0 0 0.161 0"/>
<feBlend mode="normal" in2="BackgroundImageFix" result="effect1_dropShadow"/>
<feBlend mode="normal" in="SourceGraphic" in2="effect1_dropShadow" result="shape"/>
</filter>
<filter id="filter7_d" x="279.705" y="2.78357" width="48.4399" height="45.9884" filterUnits="userSpaceOnUse" color-interpolation-filters="sRGB">
<feFlood flood-opacity="0" result="BackgroundImageFix"/>
<feColorMatrix in="SourceAlpha" type="matrix" values="0 0 0 0 0 0 0 0 0 0 0 0 0 0 0 0 0 0 127 0"/>
<feOffset dy="3"/>
<feGaussianBlur stdDeviation="3"/>
<feColorMatrix type="matrix" values="0 0 0 0 0 0 0 0 0 0 0 0 0 0 0 0 0 0 0.161 0"/>
<feBlend mode="normal" in2="BackgroundImageFix" result="effect1_dropShadow"/>
<feBlend mode="normal" in="SourceGraphic" in2="effect1_dropShadow" result="shape"/>
</filter>
</defs>
</svg>
