<svg xmlns="http://www.w3.org/2000/svg" viewBox="0 0 1269.18 203.37"><defs><style>.cls-1{fill:none;}.cls-2{fill:#fff;}</style></defs><title>teemprego_logolight</title><g id="Layer_2" data-name="Layer 2"><g id="Layer_2-2" data-name="Layer 2"><path class="cls-1" d="M603.85,187.64a7.31,7.31,0,0,0-3.68-.93,7.45,7.45,0,0,0-3.71.93,6.77,6.77,0,0,0-2.6,2.56,7.55,7.55,0,0,0,0,7.31,6.76,6.76,0,0,0,2.6,2.56,7.45,7.45,0,0,0,3.71.93,7.31,7.31,0,0,0,3.68-.93,6.82,6.82,0,0,0,2.58-2.56,7.55,7.55,0,0,0,0-7.31A6.83,6.83,0,0,0,603.85,187.64Z"/><path class="cls-1" d="M1053.88,186.87h-4.52v8.34h4.52a6,6,0,0,0,3.85-1.08,4.27,4.27,0,0,0,0-6.19A6,6,0,0,0,1053.88,186.87Z"/><path class="cls-1" d="M112.15,186.87h-4.52v8.34h4.52a6,6,0,0,0,3.85-1.08,4.27,4.27,0,0,0,0-6.19A6,6,0,0,0,112.15,186.87Z"/><path class="cls-1" d="M673.49,62.48c0-5.37-1.66-9.67-5-13s-9.67-5-18.94-5H633.75l0,37.21h17.19C666,81.72,673.48,75.28,673.49,62.48Z"/><path class="cls-1" d="M861.85,191a3.76,3.76,0,0,0-1.33-3.1,6,6,0,0,0-3.85-1.08h-4.52v8.37h4.52a6,6,0,0,0,3.85-1.09A3.79,3.79,0,0,0,861.85,191Z"/><path class="cls-1" d="M781.7,43.59h-18l0,32.32h17c15.53,0,22-4.87,22-16.3C802.69,49,795.66,43.6,781.7,43.59Z"/><path class="cls-1" d="M759.3,191a3.76,3.76,0,0,0-1.33-3.1,6,6,0,0,0-3.85-1.08h-4.52v8.37h4.52a6,6,0,0,0,3.85-1.09A3.79,3.79,0,0,0,759.3,191Z"/><path class="cls-1" d="M1109.87,191a3.76,3.76,0,0,0-1.33-3.1,6,6,0,0,0-3.85-1.08h-4.52v8.37h4.52a6,6,0,0,0,3.85-1.09A3.79,3.79,0,0,0,1109.87,191Z"/><polygon class="cls-1" points="801.04 196.38 809.07 196.38 805.06 187.26 801.04 196.38"/><polygon class="cls-1" points="247.86 196.38 255.89 196.38 251.88 187.26 247.86 196.38"/><path class="cls-1" d="M61.33,186.87H56.82v8.34h4.52a6,6,0,0,0,3.85-1.08,4.27,4.27,0,0,0,0-6.19A6,6,0,0,0,61.33,186.87Z"/><path class="cls-1" d="M1262.82,187.64a7.31,7.31,0,0,0-3.68-.93,7.45,7.45,0,0,0-3.71.93,6.78,6.78,0,0,0-2.6,2.56,7.55,7.55,0,0,0,0,7.31,6.77,6.77,0,0,0,2.6,2.56,7.45,7.45,0,0,0,3.71.93,7.31,7.31,0,0,0,3.68-.93,6.82,6.82,0,0,0,2.58-2.56,7.55,7.55,0,0,0,0-7.31A6.83,6.83,0,0,0,1262.82,187.64Z"/><path class="cls-1" d="M202.26,186.87h-4.52v8.34h4.52a6,6,0,0,0,3.85-1.08,4.27,4.27,0,0,0,0-6.19A6,6,0,0,0,202.26,186.87Z"/><polygon class="cls-1" points="5.71 196.38 13.74 196.38 9.73 187.26 5.71 196.38"/><polygon class="cls-1" points="350.42 196.38 358.44 196.38 354.43 187.26 350.42 196.38"/><path class="cls-1" d="M308.67,191a3.75,3.75,0,0,0-1.33-3.1,6,6,0,0,0-3.85-1.08H299v8.37h4.52a5.94,5.94,0,0,0,3.85-1.09A3.79,3.79,0,0,0,308.67,191Z"/><path class="cls-2" d="M.23,81.8A77.2,77.2,0,0,0,77.44,159h202.8V0H.23ZM158,13.68H260V45.13H194.38V64.95h56.74v27H194.38v22h68.75v31.45H158Zm-140.63,0H143.21v32H98.39v99.61H62V45.71H17.33Z"/><polygon class="cls-2" points="333.82 91.32 390.56 91.35 390.58 64.4 333.84 64.37 333.85 44.55 399.47 44.58 399.49 13.13 297.44 13.08 297.37 144.72 402.55 144.77 402.56 113.33 333.81 113.3 333.82 91.32"/><path class="cls-2" d="M496.53,71.58h-.39l-38-58.42-37.6,0-.06,131.64,36.43,0,0-52.44c-.1-4.49-.68-13.57-1.84-27.34l.68-.19,13.37,23,24.59,37.61h5.18L523.18,87.8c2.25-3.42,6.74-11.13,13.39-22.94l.59.2L535.58,92.4l0,52.44,36.33,0,.06-131.64-37.6,0Z"/><path class="cls-2" d="M709.33,61.33c0-14.65-4.87-26.37-14.73-35.07s-24.6-13-44-13l-53.22,0-.06,131.64,36.43,0,0-35.35H655.3C690.16,109.56,709.31,92.29,709.33,61.33ZM633.73,81.7l0-37.21h15.82c9.28,0,15.62,1.67,18.94,5s5,7.62,5,13c0,12.79-7.53,19.23-22.57,19.23Z"/><path class="cls-2" d="M818.69,95c13.19-7.12,19.83-19.33,19.84-36.61,0-13.77-4.68-24.71-13.95-32.82s-23.33-12.22-41.89-12.23l-55.37,0-.06,131.64,36.43,0,0-43h17.77l25.17,43,40.43,0L818.69,95.56Zm-38-19.06h-17l0-32.32h18c14,0,21,5.38,21,16C802.68,71,796.23,75.92,780.71,75.91Z"/><polygon class="cls-2" points="897.3 91.59 954.04 91.62 954.05 64.67 897.31 64.64 897.32 44.82 962.95 44.85 962.96 13.4 860.91 13.36 860.85 145 966.02 145.05 966.04 113.6 897.29 113.57 897.3 91.59"/><path class="cls-2" d="M1106.59,72.95l-58.4,0v26h22.07v9.38q-3.08,3.22-10,5.56a45.31,45.31,0,0,1-15.24,2.43,29,29,0,0,1-22.07-9.48c-6-6.35-9-14.85-9-25.69,0-11,3.43-20.21,10.27-27.34s16.41-10.64,28.62-10.63a73.88,73.88,0,0,1,40.52,11.93l9-29.59c-13-9.58-30.56-14.37-52.53-14.38s-39.55,6.62-53,19.9S976.61,61,976.6,81.09q0,28.86,17.55,47.57,17.42,18.9,46.87,18.87c15.53,0,27.15-5,34.77-15h1l5.85,12.6h23.93Z"/><path class="cls-2" d="M1248.5,30.44q-20.79-19.2-52.24-19.26-31.64,0-52.45,19.21T1123,78.52q0,30.91,20.48,50t52.73,19.07q32.81,0,52.94-19.51t20-49.5Q1269.2,49.73,1248.5,30.44Zm-76.8,82.93h-15.6V66.56h15.6Zm70.2-42.57v7.47a7.8,7.8,0,0,1-.57,2.85l-11.76,27.49a7.78,7.78,0,0,1-7.18,4.76h-35.1a7.8,7.8,0,0,1-7.8-7.8v-39a7.85,7.85,0,0,1,2.28-5.52l25.68-25.68,4.15,4.11a5.84,5.84,0,0,1,1.72,4.13,6.23,6.23,0,0,1-.14,1.23l-3.72,17.82h24.63a7.8,7.8,0,0,1,7.8,7.8l0,.29Z"/><path class="cls-2" d="M8.42,184.55,0,203.16H2.74l2-4.65h9.89l2,4.65h2.79l-8.45-18.6ZM5.71,196.38l4-9.12,4,9.12Z"/><path class="cls-2" d="M67.1,186.28a8.62,8.62,0,0,0-5.69-1.73H54.16v18.6h2.66v-5.63h4.6a8.61,8.61,0,0,0,5.69-1.73,6.49,6.49,0,0,0,0-9.51Zm-1.91,7.85a6,6,0,0,1-3.85,1.08H56.82v-8.34h4.52a6,6,0,0,1,3.85,1.08,4.27,4.27,0,0,1,0,6.19Z"/><path class="cls-2" d="M117.91,186.28a8.62,8.62,0,0,0-5.69-1.73H105v18.6h2.66v-5.63h4.6a8.61,8.61,0,0,0,5.69-1.73,6.49,6.49,0,0,0,0-9.51ZM116,194.13a6,6,0,0,1-3.85,1.08h-4.52v-8.34h4.52a6,6,0,0,1,3.85,1.08,4.27,4.27,0,0,1,0,6.19Z"/><path class="cls-2" d="M208,186.28a8.62,8.62,0,0,0-5.69-1.73h-7.25v18.6h2.66v-5.63h4.6a8.61,8.61,0,0,0,5.69-1.73,6.49,6.49,0,0,0,0-9.51Zm-1.91,7.85a6,6,0,0,1-3.85,1.08h-4.52v-8.34h4.52a6,6,0,0,1,3.85,1.08,4.27,4.27,0,0,1,0,6.19Z"/><path class="cls-2" d="M250.57,184.55l-8.42,18.6h2.74l2-4.65h9.89l2,4.65h2.79l-8.45-18.6Zm-2.71,11.83,4-9.12,4,9.12Z"/><path class="cls-2" d="M310.26,194.7a6.22,6.22,0,0,0,1.06-3.67,5.86,5.86,0,0,0-2.07-4.76,8.62,8.62,0,0,0-5.69-1.73h-7.25v18.6H299V197.5h4.6q.42,0,1.17-.05l4,5.71h2.9l-4.41-6.25A6,6,0,0,0,310.26,194.7Zm-6.78.53H299v-8.37h4.52a6,6,0,0,1,3.85,1.08,4.29,4.29,0,0,1,0,6.21A5.94,5.94,0,0,1,303.48,195.24Z"/><path class="cls-2" d="M353.13,184.55l-8.42,18.6h2.74l2-4.65h9.89l2,4.65h2.79l-8.45-18.6Zm-2.71,11.83,4-9.12,4,9.12Z"/><polygon class="cls-2" points="440.56 194.84 449.88 194.84 449.88 192.58 440.56 192.58 440.56 186.87 451.03 186.87 451.03 184.55 437.9 184.55 437.9 203.16 451.4 203.16 451.4 200.84 440.56 200.84 440.56 194.84"/><polygon class="cls-2" points="500.94 198.43 489.77 184.55 487.59 184.55 487.59 203.16 490.25 203.16 490.25 189.28 501.41 203.16 503.59 203.16 503.59 184.55 500.94 184.55 500.94 198.43"/><path class="cls-2" d="M545.77,187.64a7.58,7.58,0,0,1,3.75-.93,6.93,6.93,0,0,1,5.23,2.21l1.73-1.68a8.18,8.18,0,0,0-3.08-2.17,10.56,10.56,0,0,0-4-.73,10.35,10.35,0,0,0-5,1.24,9.07,9.07,0,0,0-3.53,3.4,10,10,0,0,0,0,9.75,9.1,9.1,0,0,0,3.52,3.4,10.29,10.29,0,0,0,5,1.24,10.47,10.47,0,0,0,4-.74,8.29,8.29,0,0,0,3.1-2.18l-1.73-1.67a6.94,6.94,0,0,1-5.23,2.23,7.58,7.58,0,0,1-3.75-.93,6.73,6.73,0,0,1-2.62-2.56,7.55,7.55,0,0,1,0-7.31A6.74,6.74,0,0,1,545.77,187.64Z"/><path class="cls-2" d="M605.21,185.58a11,11,0,0,0-10.12,0,9.14,9.14,0,0,0-3.55,3.42,9.82,9.82,0,0,0,0,9.73,9.14,9.14,0,0,0,3.55,3.42,11,11,0,0,0,10.13,0,9.06,9.06,0,0,0,3.53-3.4,10,10,0,0,0,0-9.75A9.06,9.06,0,0,0,605.21,185.58Zm1.21,11.93a6.82,6.82,0,0,1-2.58,2.56,7.31,7.31,0,0,1-3.68.93,7.45,7.45,0,0,1-3.71-.93,6.76,6.76,0,0,1-2.6-2.56,7.55,7.55,0,0,1,0-7.31,6.77,6.77,0,0,1,2.6-2.56,7.45,7.45,0,0,1,3.71-.93,7.31,7.31,0,0,1,3.68.93,6.83,6.83,0,0,1,2.58,2.56,7.55,7.55,0,0,1,0,7.31Z"/><polygon class="cls-2" points="659.32 198.43 648.16 184.55 645.98 184.55 645.98 203.16 648.64 203.16 648.64 189.28 659.8 203.16 661.98 203.16 661.98 184.55 659.32 184.55 659.32 198.43"/><polygon class="cls-2" points="696.76 186.87 703.14 186.87 703.14 203.16 705.77 203.16 705.77 186.87 712.15 186.87 712.15 184.55 696.76 184.55 696.76 186.87"/><path class="cls-2" d="M760.89,194.7A6.22,6.22,0,0,0,762,191a5.86,5.86,0,0,0-2.07-4.76,8.62,8.62,0,0,0-5.69-1.73h-7.25v18.6h2.66V197.5h4.6c.28,0,.67,0,1.17-.05l4,5.71h2.9l-4.41-6.25A6,6,0,0,0,760.89,194.7Zm-6.78.53h-4.52v-8.37h4.52a6,6,0,0,1,3.85,1.08,4.29,4.29,0,0,1,0,6.21A6,6,0,0,1,754.11,195.24Z"/><path class="cls-2" d="M803.76,184.55l-8.42,18.6h2.74l2-4.65H810l2,4.65h2.79l-8.45-18.6ZM801,196.38l4-9.12,4,9.12Z"/><path class="cls-2" d="M863.44,194.7A6.22,6.22,0,0,0,864.5,191a5.86,5.86,0,0,0-2.07-4.76,8.62,8.62,0,0,0-5.69-1.73h-7.25v18.6h2.66V197.5h4.6c.28,0,.67,0,1.17-.05l4,5.71h2.9l-4.41-6.25A6,6,0,0,0,863.44,194.7Zm-6.78.53h-4.52v-8.37h4.52a6,6,0,0,1,3.85,1.08,4.29,4.29,0,0,1,0,6.21A6,6,0,0,1,856.66,195.24Z"/><polygon class="cls-2" points="942.39 194.84 951.72 194.84 951.72 192.58 942.39 192.58 942.39 186.87 952.87 186.87 952.87 184.55 939.74 184.55 939.74 203.16 953.24 203.16 953.24 200.84 942.39 200.84 942.39 194.84"/><polygon class="cls-2" points="1007.03 184.55 999.37 197.63 991.61 184.55 989.43 184.55 989.43 203.16 991.98 203.16 991.98 189.68 998.71 200.9 999.93 200.9 1006.65 189.6 1006.68 203.16 1009.23 203.16 1009.21 184.55 1007.03 184.55"/><path class="cls-2" d="M1059.64,186.28a8.62,8.62,0,0,0-5.69-1.73h-7.25v18.6h2.66v-5.63h4.6a8.61,8.61,0,0,0,5.69-1.73,6.49,6.49,0,0,0,0-9.51Zm-1.91,7.85a6,6,0,0,1-3.85,1.08h-4.52v-8.34h4.52a6,6,0,0,1,3.85,1.08,4.27,4.27,0,0,1,0,6.19Z"/><path class="cls-2" d="M1111.46,194.7a6.22,6.22,0,0,0,1.06-3.67,5.86,5.86,0,0,0-2.07-4.76,8.62,8.62,0,0,0-5.69-1.73h-7.25v18.6h2.66V197.5h4.6c.28,0,.67,0,1.17-.05l4,5.71h2.9l-4.41-6.25A6,6,0,0,0,1111.46,194.7Zm-6.78.53h-4.52v-8.37h4.52a6,6,0,0,1,3.85,1.08,4.29,4.29,0,0,1,0,6.21A6,6,0,0,1,1104.69,195.24Z"/><polygon class="cls-2" points="1151.38 194.84 1160.71 194.84 1160.71 192.58 1151.38 192.58 1151.38 186.87 1161.85 186.87 1161.85 184.55 1148.72 184.55 1148.72 203.16 1162.22 203.16 1162.22 200.84 1151.38 200.84 1151.38 194.84"/><path class="cls-2" d="M1203.08,187.62a7.86,7.86,0,0,1,3.81-.92,7.49,7.49,0,0,1,5.39,2.15l1.65-1.65a8.28,8.28,0,0,0-3.1-2.14,10.8,10.8,0,0,0-4.05-.73,10.62,10.62,0,0,0-5.11,1.22,9,9,0,0,0-3.56,3.4,9.9,9.9,0,0,0,0,9.77,9.17,9.17,0,0,0,3.55,3.4,10.42,10.42,0,0,0,5.08,1.24,12,12,0,0,0,3.83-.61,9.91,9.91,0,0,0,3.22-1.75v-7.25h-2.55v6.06a7.89,7.89,0,0,1-4.36,1.2,7.71,7.71,0,0,1-3.79-.93,6.81,6.81,0,0,1-2.64-2.56,7.51,7.51,0,0,1,0-7.33A6.73,6.73,0,0,1,1203.08,187.62Z"/><path class="cls-2" d="M1264.19,185.58a11,11,0,0,0-10.13,0,9.14,9.14,0,0,0-3.55,3.42,9.82,9.82,0,0,0,0,9.73,9.13,9.13,0,0,0,3.55,3.42,11,11,0,0,0,10.13,0,9.06,9.06,0,0,0,3.53-3.4,10,10,0,0,0,0-9.75A9.06,9.06,0,0,0,1264.19,185.58Zm1.21,11.93a6.82,6.82,0,0,1-2.58,2.56,7.31,7.31,0,0,1-3.68.93,7.45,7.45,0,0,1-3.71-.93,6.77,6.77,0,0,1-2.6-2.56,7.55,7.55,0,0,1,0-7.31,6.78,6.78,0,0,1,2.6-2.56,7.45,7.45,0,0,1,3.71-.93,7.31,7.31,0,0,1,3.68.93,6.83,6.83,0,0,1,2.58,2.56,7.55,7.55,0,0,1,0,7.31Z"/></g></g></svg>